<svg width="207" height="38" viewBox="0 0 207 38" fill="none" xmlns="http://www.w3.org/2000/svg">
<path d="M53.46 30.3C52 30.3 50.66 30.04 49.44 29.52C48.22 29 47.16 28.26 46.26 27.3C45.36 26.32 44.66 25.17 44.16 23.85C43.68 22.53 43.44 21.08 43.44 19.5C43.44 18 43.7 16.61 44.22 15.33C44.76 14.03 45.5 12.89 46.44 11.91C47.38 10.93 48.47 10.17 49.71 9.63C50.95 9.09 52.29 8.82 53.73 8.82C54.75 8.82 55.74 8.98 56.7 9.3C57.68 9.6 58.56 10.03 59.34 10.59C60.14 11.13 60.79 11.75 61.29 12.45L59.13 14.7C58.55 14.12 57.96 13.64 57.36 13.26C56.78 12.86 56.18 12.56 55.56 12.36C54.96 12.16 54.35 12.06 53.73 12.06C52.75 12.06 51.83 12.25 50.97 12.63C50.13 12.99 49.39 13.5 48.75 14.16C48.13 14.82 47.64 15.61 47.28 16.53C46.92 17.43 46.74 18.42 46.74 19.5C46.74 20.64 46.91 21.68 47.25 22.62C47.61 23.54 48.11 24.33 48.75 24.99C49.39 25.65 50.15 26.16 51.03 26.52C51.93 26.86 52.92 27.03 54 27.03C54.66 27.03 55.31 26.94 55.95 26.76C56.59 26.58 57.19 26.32 57.75 25.98C58.31 25.64 58.82 25.24 59.28 24.78L60.9 27.42C60.44 27.96 59.81 28.45 59.01 28.89C58.23 29.33 57.35 29.68 56.37 29.94C55.41 30.18 54.44 30.3 53.46 30.3ZM71.8713 30.3C70.2513 30.3 68.8113 29.96 67.5513 29.28C66.3113 28.58 65.3313 27.63 64.6113 26.43C63.9113 25.23 63.5613 23.85 63.5613 22.29C63.5613 21.05 63.7613 19.92 64.1613 18.9C64.5613 17.88 65.1113 17 65.8113 16.26C66.5313 15.5 67.3813 14.92 68.3613 14.52C69.3613 14.1 70.4413 13.89 71.6013 13.89C72.6213 13.89 73.5713 14.09 74.4513 14.49C75.3313 14.87 76.0913 15.4 76.7313 16.08C77.3913 16.76 77.8913 17.57 78.2313 18.51C78.5913 19.43 78.7613 20.44 78.7413 21.54L78.7113 22.86H65.8413L65.1513 20.4H76.0413L75.5913 20.91V20.19C75.5313 19.53 75.3113 18.94 74.9313 18.42C74.5513 17.9 74.0713 17.49 73.4913 17.19C72.9113 16.89 72.2813 16.74 71.6013 16.74C70.5213 16.74 69.6113 16.95 68.8713 17.37C68.1313 17.77 67.5713 18.37 67.1913 19.17C66.8113 19.95 66.6213 20.92 66.6213 22.08C66.6213 23.18 66.8513 24.14 67.3113 24.96C67.7713 25.76 68.4213 26.38 69.2613 26.82C70.1013 27.26 71.0713 27.48 72.1713 27.48C72.9513 27.48 73.6713 27.35 74.3313 27.09C75.0113 26.83 75.7413 26.36 76.5213 25.68L78.0813 27.87C77.6013 28.35 77.0113 28.77 76.3113 29.13C75.6313 29.49 74.9013 29.78 74.1213 30C73.3613 30.2 72.6113 30.3 71.8713 30.3ZM82.0995 30V14.25H85.1895V17.49L84.6495 17.85C84.8495 17.15 85.2395 16.51 85.8195 15.93C86.3995 15.33 87.0895 14.85 87.8895 14.49C88.6895 14.11 89.5095 13.92 90.3495 13.92C91.5495 13.92 92.5495 14.16 93.3495 14.64C94.1495 15.1 94.7495 15.81 95.1495 16.77C95.5495 17.73 95.7495 18.94 95.7495 20.4V30H92.6595V20.61C92.6595 19.71 92.5395 18.97 92.2995 18.39C92.0595 17.79 91.6895 17.36 91.1895 17.1C90.6895 16.82 90.0695 16.7 89.3295 16.74C88.7295 16.74 88.1795 16.84 87.6795 17.04C87.1795 17.22 86.7395 17.48 86.3595 17.82C85.9995 18.16 85.7095 18.56 85.4895 19.02C85.2895 19.46 85.1895 19.94 85.1895 20.46V30H83.6595C83.3995 30 83.1395 30 82.8795 30C82.6195 30 82.3595 30 82.0995 30ZM106.991 36.9C105.871 36.9 104.751 36.72 103.631 36.36C102.531 36.02 101.641 35.57 100.961 35.01L102.101 32.61C102.501 32.91 102.971 33.17 103.511 33.39C104.051 33.63 104.621 33.81 105.221 33.93C105.821 34.07 106.411 34.14 106.991 34.14C108.091 34.14 109.011 33.96 109.751 33.6C110.491 33.24 111.051 32.71 111.431 32.01C111.811 31.31 112.001 30.44 112.001 29.4V26.37L112.331 26.58C112.231 27.2 111.901 27.8 111.341 28.38C110.801 28.94 110.121 29.4 109.301 29.76C108.481 30.12 107.641 30.3 106.781 30.3C105.281 30.3 103.941 29.95 102.761 29.25C101.601 28.53 100.681 27.56 100.001 26.34C99.3213 25.1 98.9813 23.69 98.9813 22.11C98.9813 20.53 99.3113 19.13 99.9713 17.91C100.651 16.67 101.571 15.7 102.731 15C103.911 14.28 105.231 13.92 106.691 13.92C107.291 13.92 107.871 14 108.431 14.16C108.991 14.3 109.511 14.51 109.991 14.79C110.471 15.05 110.901 15.34 111.281 15.66C111.661 15.98 111.971 16.32 112.211 16.68C112.451 17.04 112.601 17.38 112.661 17.7L112.001 17.94V14.25H115.091V29.04C115.091 30.3 114.901 31.41 114.521 32.37C114.161 33.35 113.631 34.17 112.931 34.83C112.231 35.51 111.381 36.02 110.381 36.36C109.381 36.72 108.251 36.9 106.991 36.9ZM107.111 27.45C108.091 27.45 108.961 27.22 109.721 26.76C110.481 26.3 111.071 25.67 111.491 24.87C111.911 24.07 112.121 23.15 112.121 22.11C112.121 21.07 111.901 20.15 111.461 19.35C111.041 18.53 110.451 17.89 109.691 17.43C108.951 16.97 108.091 16.74 107.111 16.74C106.151 16.74 105.291 16.98 104.531 17.46C103.791 17.92 103.201 18.56 102.761 19.38C102.341 20.18 102.131 21.09 102.131 22.11C102.131 23.13 102.341 24.05 102.761 24.87C103.201 25.67 103.791 26.3 104.531 26.76C105.291 27.22 106.151 27.45 107.111 27.45ZM119.934 30V14.25H123.024V30H119.934ZM121.434 10.77C120.774 10.77 120.264 10.6 119.904 10.26C119.544 9.92 119.364 9.44 119.364 8.82C119.364 8.24 119.544 7.77 119.904 7.41C120.284 7.05 120.794 6.87 121.434 6.87C122.094 6.87 122.604 7.04 122.964 7.38C123.324 7.72 123.504 8.2 123.504 8.82C123.504 9.4 123.314 9.87 122.934 10.23C122.574 10.59 122.074 10.77 121.434 10.77ZM127.773 30V14.25H130.863V17.49L130.323 17.85C130.523 17.15 130.913 16.51 131.493 15.93C132.073 15.33 132.763 14.85 133.563 14.49C134.363 14.11 135.183 13.92 136.023 13.92C137.223 13.92 138.223 14.16 139.023 14.64C139.823 15.1 140.423 15.81 140.823 16.77C141.223 17.73 141.423 18.94 141.423 20.4V30H138.333V20.61C138.333 19.71 138.213 18.97 137.973 18.39C137.733 17.79 137.363 17.36 136.863 17.1C136.363 16.82 135.743 16.7 135.003 16.74C134.403 16.74 133.853 16.84 133.353 17.04C132.853 17.22 132.413 17.48 132.033 17.82C131.673 18.16 131.383 18.56 131.163 19.02C130.963 19.46 130.863 19.94 130.863 20.46V30H129.333C129.073 30 128.813 30 128.553 30C128.293 30 128.033 30 127.773 30ZM152.965 30.3C151.345 30.3 149.905 29.96 148.645 29.28C147.405 28.58 146.425 27.63 145.705 26.43C145.005 25.23 144.655 23.85 144.655 22.29C144.655 21.05 144.855 19.92 145.255 18.9C145.655 17.88 146.205 17 146.905 16.26C147.625 15.5 148.475 14.92 149.455 14.52C150.455 14.1 151.535 13.89 152.695 13.89C153.715 13.89 154.665 14.09 155.545 14.49C156.425 14.87 157.185 15.4 157.825 16.08C158.485 16.76 158.985 17.57 159.325 18.51C159.685 19.43 159.855 20.44 159.835 21.54L159.805 22.86H146.935L146.245 20.4H157.135L156.685 20.91V20.19C156.625 19.53 156.405 18.94 156.025 18.42C155.645 17.9 155.165 17.49 154.585 17.19C154.005 16.89 153.375 16.74 152.695 16.74C151.615 16.74 150.705 16.95 149.965 17.37C149.225 17.77 148.665 18.37 148.285 19.17C147.905 19.95 147.715 20.92 147.715 22.08C147.715 23.18 147.945 24.14 148.405 24.96C148.865 25.76 149.515 26.38 150.355 26.82C151.195 27.26 152.165 27.48 153.265 27.48C154.045 27.48 154.765 27.35 155.425 27.09C156.105 26.83 156.835 26.36 157.615 25.68L159.175 27.87C158.695 28.35 158.105 28.77 157.405 29.13C156.725 29.49 155.995 29.78 155.215 30C154.455 30.2 153.705 30.3 152.965 30.3ZM170.543 30.3C168.923 30.3 167.483 29.96 166.223 29.28C164.983 28.58 164.003 27.63 163.283 26.43C162.583 25.23 162.233 23.85 162.233 22.29C162.233 21.05 162.433 19.92 162.833 18.9C163.233 17.88 163.783 17 164.483 16.26C165.203 15.5 166.053 14.92 167.033 14.52C168.033 14.1 169.113 13.89 170.273 13.89C171.293 13.89 172.243 14.09 173.123 14.49C174.003 14.87 174.763 15.4 175.403 16.08C176.063 16.76 176.563 17.57 176.903 18.51C177.263 19.43 177.433 20.44 177.413 21.54L177.383 22.86H164.513L163.823 20.4H174.713L174.263 20.91V20.19C174.203 19.53 173.983 18.94 173.603 18.42C173.223 17.9 172.743 17.49 172.163 17.19C171.583 16.89 170.953 16.74 170.273 16.74C169.193 16.74 168.283 16.95 167.543 17.37C166.803 17.77 166.243 18.37 165.863 19.17C165.483 19.95 165.293 20.92 165.293 22.08C165.293 23.18 165.523 24.14 165.983 24.96C166.443 25.76 167.093 26.38 167.933 26.82C168.773 27.26 169.743 27.48 170.843 27.48C171.623 27.48 172.343 27.35 173.003 27.09C173.683 26.83 174.413 26.36 175.193 25.68L176.753 27.87C176.273 28.35 175.683 28.77 174.983 29.13C174.303 29.49 173.573 29.78 172.793 30C172.033 30.2 171.283 30.3 170.543 30.3ZM180.771 30V14.25H183.891V19.2L183.591 18C183.811 17.24 184.181 16.55 184.701 15.93C185.241 15.31 185.851 14.82 186.531 14.46C187.231 14.1 187.951 13.92 188.691 13.92C189.031 13.92 189.351 13.95 189.651 14.01C189.971 14.07 190.221 14.14 190.401 14.22L189.591 17.58C189.351 17.48 189.081 17.4 188.781 17.34C188.501 17.26 188.221 17.22 187.941 17.22C187.401 17.22 186.881 17.33 186.381 17.55C185.901 17.75 185.471 18.04 185.091 18.42C184.731 18.78 184.441 19.21 184.221 19.71C184.001 20.19 183.891 20.72 183.891 21.3V30H180.771ZM198.241 30.3C196.761 30.3 195.471 29.96 194.371 29.28C193.291 28.6 192.271 27.46 191.311 25.86L193.831 24.27C194.331 25.01 194.821 25.62 195.301 26.1C195.801 26.56 196.311 26.9 196.831 27.12C197.351 27.34 197.901 27.45 198.481 27.45C199.181 27.45 199.831 27.28 200.431 26.94C201.031 26.58 201.511 26.09 201.871 25.47C202.231 24.85 202.411 24.15 202.411 23.37C202.411 22.59 202.271 21.93 201.991 21.39C201.711 20.83 201.301 20.41 200.761 20.13C200.221 19.83 199.581 19.68 198.841 19.68C198.501 19.68 198.141 19.72 197.761 19.8C197.401 19.86 197.011 19.96 196.591 20.1C196.171 20.22 195.711 20.38 195.211 20.58L194.311 18.21L200.791 11.07L201.421 12H192.481V9H204.511L205.111 10.2L198.241 17.82L197.491 17.04C197.651 16.96 197.911 16.89 198.271 16.83C198.651 16.75 198.961 16.71 199.201 16.71C200.081 16.71 200.901 16.88 201.661 17.22C202.441 17.54 203.111 18 203.671 18.6C204.251 19.18 204.701 19.87 205.021 20.67C205.361 21.45 205.531 22.29 205.531 23.19C205.531 24.55 205.201 25.77 204.541 26.85C203.901 27.91 203.031 28.75 201.931 29.37C200.831 29.99 199.601 30.3 198.241 30.3Z" fill="#5581B9"/>
<path fill-rule="evenodd" clip-rule="evenodd" d="M33.9128 20.2627C33.9764 19.6507 34.0091 19.0293 34.0091 18.4C34.0091 16.664 33.7606 14.9873 33.2981 13.4052L29.8829 16.9963C30.2452 17.0622 30.5988 17.1674 30.9437 17.3118C31.5786 17.5627 32.1396 17.9171 32.6268 18.3747C33.114 18.8176 33.4978 19.3418 33.7783 19.9471C33.8275 20.0505 33.8723 20.1557 33.9128 20.2627ZM32.4053 25.7865C29.6904 31.7031 23.815 35.8 17.0045 35.8C7.61319 35.8 0 28.0098 0 18.4C0 8.79024 7.61319 1 17.0045 1C23.9703 1 29.9579 5.28583 32.5861 11.4211H23.0821V15.0086L27.7901 15.139L24.898 18.264L25.806 20.6336C26.0717 20.5007 26.3301 20.39 26.5811 20.3014C26.8468 20.2128 27.0978 20.1464 27.334 20.1021C27.585 20.0578 27.8138 20.0357 28.0205 20.0357C28.4782 20.0357 28.8694 20.1095 29.1942 20.2571C29.519 20.39 29.77 20.5967 29.9472 20.8772C30.1243 21.1429 30.2129 21.4751 30.2129 21.8737C30.2129 22.2576 30.117 22.5898 29.925 22.8703C29.7479 23.1508 29.5043 23.3649 29.1942 23.5125C28.8842 23.6601 28.5446 23.7339 28.1755 23.7339C27.7769 23.7339 27.3857 23.6749 27.0018 23.5568C26.6327 23.4239 26.2784 23.2098 25.9388 22.9146C25.5993 22.6193 25.2819 22.2207 24.9866 21.7187L21.8862 23.7118C22.6835 25.0553 23.584 25.9928 24.588 26.5243C25.5919 27.0558 26.7508 27.3215 28.0648 27.3215C29.2164 27.3215 30.2498 27.0853 31.1652 26.6129C31.6256 26.379 32.039 26.1035 32.4053 25.7865ZM9.74736 27.1V11.5982H21.0194V15.2079H13.955V17.5332H20.1336V20.9436H13.955V23.4903H21.3516V27.1H9.74736Z" fill="#5581B9"/>
</svg>
